<?xml version="1.0" encoding="UTF-8" standalone="no"?>
<!-- Created with Inkscape (http://www.inkscape.org/) -->

<svg
   width="18.582363mm"
   height="12.844999mm"
   viewBox="0 0 18.582364 12.845"
   version="1.1"
   id="svg5"
   inkscape:version="1.1.1 (c3084ef, 2021-09-22)"
   sodipodi:docname="AHT10_Schema.svg"
   xmlns:inkscape="http://www.inkscape.org/namespaces/inkscape"
   xmlns:sodipodi="http://sodipodi.sourceforge.net/DTD/sodipodi-0.dtd"
   xmlns="http://www.w3.org/2000/svg"
   xmlns:svg="http://www.w3.org/2000/svg">
  <sodipodi:namedview
     id="namedview7"
     pagecolor="#ffffff"
     bordercolor="#666666"
     borderopacity="1.0"
     inkscape:pageshadow="2"
     inkscape:pageopacity="0.0"
     inkscape:pagecheckerboard="0"
     inkscape:document-units="mm"
     showgrid="true"
     inkscape:snap-object-midpoints="false"
     inkscape:zoom="5.3774437"
     inkscape:cx="30.590743"
     inkscape:cy="21.385626"
     inkscape:window-width="1440"
     inkscape:window-height="900"
     inkscape:window-x="0"
     inkscape:window-y="0"
     inkscape:window-maximized="0"
     inkscape:current-layer="layer1"
     fit-margin-top="0"
     fit-margin-left="0"
     fit-margin-right="0"
     fit-margin-bottom="0"
     inkscape:snap-bbox="true"
     inkscape:snap-bbox-edge-midpoints="true">
    <inkscape:grid
       type="xygrid"
       id="grid9"
       units="mm"
       spacingx="2.5400001"
       originx="13.085002"
       originy="-10.015001"
       spacingy="2.5400001" />
  </sodipodi:namedview>
  <defs
     id="defs2">
    <linearGradient
       id="linearGradient13428"
       inkscape:swatch="solid">
      <stop
         style="stop-color:#000000;stop-opacity:1;"
         offset="0"
         id="stop13426" />
    </linearGradient>
  </defs>
  <g
     inkscape:label="Layer 1"
     inkscape:groupmode="layer"
     id="layer1"
     transform="translate(-15.954999,-38.8666)">
    <g
       id="schematic"
       inkscape:label="#schematic">
      <rect
         style="fill:#fefeff;fill-opacity:1;fill-rule:evenodd;stroke:#000000;stroke-width:0.268514;stroke-linejoin:round;stroke-miterlimit:4;stroke-dasharray:none;stroke-opacity:1"
         id="rect33-8"
         width="10.421486"
         height="12.576486"
         x="-26.510742"
         y="-51.577343"
         transform="scale(-1)"
         ry="0.38499841" />
      <g
         aria-label="SDA"
         transform="matrix(1.0020659,0,0,0.85554324,55.354148,24.57101)"
         id="text10182"
         style="font-size:1.41111px;-inkscape-font-specification:'sans-serif, Normal';fill:none;stroke:#000000;stroke-width:0.065">
        <path
           style="color:#000000;-inkscape-font-specification:'sans-serif, Normal';fill:#000000;stroke:none;-inkscape-stroke:none"
           d="m -32.046875,19.212891 c -0.116971,0 -0.217908,0.02987 -0.296875,0.08984 -0.07911,0.05958 -0.121094,0.141278 -0.121094,0.236328 0,0.08119 0.02469,0.151907 0.07422,0.205079 0.05023,0.05285 0.125623,0.08725 0.220703,0.107421 0.0455,0.0093 0.08832,0.01734 0.128906,0.02344 0.03936,0.0058 0.07433,0.01266 0.107422,0.02148 h 0.002 c 0.04207,0.01105 0.06973,0.0271 0.08594,0.04297 0.01428,0.0137 0.02344,0.03606 0.02344,0.07617 0,0.04312 -0.01626,0.07256 -0.05664,0.09961 v 0.002 c -0.03934,0.02661 -0.09728,0.04102 -0.177735,0.04102 -0.05546,0 -0.116428,-0.01073 -0.18164,-0.0332 -0.06458,-0.02225 -0.121157,-0.05318 -0.169922,-0.09375 l -0.0078,-0.0078 h -0.05469 v 0.22461 l 0.01953,0.0078 c 0.06276,0.02784 0.12458,0.05016 0.185547,0.06445 0.06216,0.01446 0.131058,0.02148 0.207031,0.02148 0.0715,0 0.134388,-0.0093 0.1875,-0.02734 0.05235,-0.01761 0.09873,-0.04226 0.138672,-0.07422 0.03721,-0.03007 0.06555,-0.06801 0.08594,-0.111328 0.02072,-0.04295 0.03125,-0.08579 0.03125,-0.130859 0,-0.07919 -0.02115,-0.147365 -0.06641,-0.195313 -0.04409,-0.04671 -0.107315,-0.07835 -0.1875,-0.09961 -0.0389,-0.01 -0.0858,-0.02 -0.140625,-0.0293 -0.05393,-0.0092 -0.09453,-0.01723 -0.123046,-0.02344 -0.05211,-0.01206 -0.08477,-0.02854 -0.09961,-0.04492 -0.0157,-0.01733 -0.02539,-0.04295 -0.02539,-0.08008 0,-0.03778 0.0152,-0.06405 0.05273,-0.08984 0.03773,-0.02567 0.08966,-0.03906 0.158203,-0.03906 0.06302,0 0.123543,0.01036 0.183594,0.03125 0.06098,0.02062 0.10949,0.04649 0.144531,0.07617 l 0.0078,0.0078 h 0.05469 v -0.216797 l -0.01953,-0.0078 c -0.04863,-0.02119 -0.104244,-0.03859 -0.166016,-0.05273 -0.06293,-0.01441 -0.130891,-0.02148 -0.205078,-0.02148 z m 0,0.06445 c 0.07005,0 0.133986,0.0064 0.191406,0.01953 0.05122,0.01173 0.09456,0.02871 0.134766,0.04492 v 0.08789 c -0.0364,-0.02402 -0.07192,-0.04783 -0.121094,-0.06445 -0.06672,-0.02321 -0.134884,-0.03516 -0.205078,-0.03516 -0.07753,0 -0.143928,0.01778 -0.195312,0.05273 -0.05067,0.03483 -0.08008,0.0848 -0.08008,0.142579 0,0.04831 0.01262,0.09169 0.04102,0.123046 0.02926,0.03231 0.07376,0.05274 0.132813,0.06641 0.03029,0.0066 0.07248,0.01417 0.126953,0.02344 0.05358,0.0091 0.100277,0.01801 0.136718,0.02734 0.07232,0.01917 0.123165,0.04698 0.15625,0.08203 0.03191,0.03381 0.04883,0.08258 0.04883,0.150391 -1e-6,0.03485 -0.0084,0.06838 -0.02539,0.103515 -0.01636,0.03478 -0.0385,0.06376 -0.06836,0.08789 -0.03355,0.02684 -0.07319,0.049 -0.119141,0.06445 -0.04427,0.01503 -0.09972,0.02148 -0.166016,0.02148 -0.07194,0 -0.137009,-0.0064 -0.193359,-0.01953 -0.05033,-0.0118 -0.101747,-0.03061 -0.154297,-0.05273 v -0.09961 c 0.04558,0.03177 0.09121,0.06298 0.146484,0.08203 0.07075,0.02438 0.13916,0.03711 0.203125,0.03711 0.08858,0 0.160479,-0.01596 0.214844,-0.05273 0.05425,-0.03634 0.08594,-0.09177 0.08594,-0.154297 0,-0.05083 -0.01419,-0.09357 -0.04492,-0.123047 -0.02789,-0.02731 -0.06635,-0.04575 -0.115235,-0.05859 -0.03582,-0.0096 -0.07375,-0.01731 -0.115234,-0.02344 -0.03933,-0.0059 -0.08242,-0.01242 -0.126953,-0.02148 -0.08682,-0.01842 -0.147587,-0.04991 -0.185547,-0.08984 -0.03775,-0.04053 -0.05664,-0.0916 -0.05664,-0.160157 0,-0.07674 0.03162,-0.135806 0.09766,-0.185546 0.06619,-0.05027 0.149587,-0.07617 0.255859,-0.07617 z"
           id="path13818" />
        <path
           style="color:#000000;-inkscape-font-specification:'sans-serif, Normal';fill:#000000;stroke:none;-inkscape-stroke:none"
           d="m -31.460937,19.232422 v 1.089844 h 0.291015 c 0.09564,0 0.173258,-0.0058 0.234375,-0.01953 0.0611,-0.01358 0.117856,-0.03545 0.167969,-0.06641 0.07253,-0.0449 0.131039,-0.109219 0.173828,-0.189453 0.04352,-0.08069 0.06445,-0.171535 0.06445,-0.269531 0,-0.103921 -0.02051,-0.195393 -0.0625,-0.273438 -0.04159,-0.0773 -0.09945,-0.139058 -0.173828,-0.185547 -0.04453,-0.02752 -0.09831,-0.04959 -0.160156,-0.06445 -0.06301,-0.01575 -0.144366,-0.02148 -0.246094,-0.02148 z m 0.06445,0.06445 h 0.224609 c 0.09855,0 0.175884,0.0078 0.230469,0.02148 0.05666,0.01362 0.103391,0.03168 0.140625,0.05469 0.06526,0.04079 0.115841,0.09426 0.152344,0.162109 0.03611,0.06711 0.05469,0.146754 0.05469,0.242188 0,0.0885 -0.0184,0.16739 -0.05664,0.238281 h -0.002 c -0.03805,0.07135 -0.08592,0.125362 -0.148437,0.164062 -0.04359,0.02693 -0.09379,0.04645 -0.148438,0.05859 -0.05372,0.01203 -0.128018,0.01953 -0.220703,0.01953 h -0.226562 z m 0.07227,0.05078 v 0.857422 h 0.160157 c 0.06728,0 0.126311,-0.0054 0.177734,-0.01563 0.05293,-0.01039 0.102145,-0.02825 0.146484,-0.05664 0.0557,-0.03563 0.09916,-0.08397 0.126953,-0.142578 0.02849,-0.05902 0.04102,-0.131433 0.04102,-0.214843 0,-0.08416 -0.01401,-0.155986 -0.04492,-0.216797 -0.03081,-0.06061 -0.07809,-0.109984 -0.138672,-0.144532 -0.04343,-0.02468 -0.08976,-0.0414 -0.138672,-0.05078 -0.04835,-0.0098 -0.10496,-0.01563 -0.169921,-0.01563 z m 0.06445,0.06641 h 0.0957 c 0.06182,0 0.115603,0.0031 0.158203,0.01172 v 0.002 c 0.04205,0.0081 0.08174,0.02172 0.11914,0.04297 0.05058,0.02884 0.0861,0.06756 0.111328,0.117188 0.02513,0.04943 0.03906,0.110891 0.03906,0.1875 0,0.07644 -0.0122,0.137991 -0.03516,0.185546 -0.02274,0.04796 -0.05724,0.08759 -0.103516,0.117188 -0.03743,0.02397 -0.07768,0.03992 -0.123047,0.04883 -0.04596,0.0091 -0.10192,0.01367 -0.166015,0.01367 h -0.0957 z"
           id="path13820" />
        <path
           style="color:#000000;-inkscape-font-specification:'sans-serif, Normal';fill:#000000;stroke:none;-inkscape-stroke:none"
           d="m -30.109375,19.232422 -0.396484,1.089844 h 0.207031 l 0.101562,-0.285157 h 0.398438 l 0.09961,0.285157 h 0.214844 L -29.5,20.279297 -29.880859,19.232422 Z m 0.04687,0.06445 h 0.06055 l -0.222656,0.623047 h 0.451172 l -0.01367,-0.04492 -0.207032,-0.578125 h 0.06641 l 0.351562,0.960937 h -0.07617 l -0.101562,-0.287109 h -0.490235 l -0.09961,0.287109 h -0.07031 z m 0.0625,0.181641 0.134766,0.375 h -0.267578 z"
           id="path13822" />
      </g>
      <g
         aria-label="SCL"
         transform="matrix(1.0020659,0,0,0.85554324,55.515704,25.083919)"
         id="text13332"
         style="font-size:1.41111px;-inkscape-font-specification:'sans-serif, Normal';fill:none;stroke:#000000;stroke-width:0.065;stroke-miterlimit:4;stroke-dasharray:none">
        <path
           style="color:#000000;-inkscape-font-specification:'sans-serif, Normal';fill:#000000;stroke:none;stroke-width:0.065;stroke-miterlimit:4;stroke-dasharray:none"
           d="m -32.130859,21.851562 c -0.116971,0 -0.215955,0.02792 -0.294922,0.08789 -0.07911,0.05958 -0.123047,0.141277 -0.123047,0.236328 0,0.08119 0.02469,0.151907 0.07422,0.205078 0.05023,0.05285 0.125623,0.08921 0.220703,0.109375 0.0455,0.0093 0.08832,0.01539 0.128906,0.02148 0.03936,0.0058 0.07628,0.01461 0.109375,0.02344 0.04207,0.01105 0.06973,0.02515 0.08594,0.04102 0.01428,0.0137 0.02344,0.03801 0.02344,0.07813 0,0.04312 -0.01626,0.07256 -0.05664,0.09961 -0.03934,0.02661 -0.09728,0.04297 -0.177734,0.04297 -0.05546,0 -0.116428,-0.01269 -0.181641,-0.03516 -0.06458,-0.02225 -0.121156,-0.05318 -0.169921,-0.09375 l -0.0078,-0.0078 h -0.05469 v 0.22461 l 0.01953,0.0098 c 0.06276,0.02784 0.12458,0.04821 0.185547,0.0625 0.06216,0.01446 0.131058,0.02148 0.207031,0.02148 0.0715,0 0.134388,-0.0074 0.1875,-0.02539 0.05235,-0.01761 0.09873,-0.04226 0.138672,-0.07422 v -0.002 c 0.03721,-0.03007 0.06555,-0.06606 0.08594,-0.109375 0.02072,-0.04295 0.03125,-0.08775 0.03125,-0.132812 0,-0.07919 -0.02115,-0.145412 -0.06641,-0.19336 -0.04408,-0.04671 -0.107316,-0.08031 -0.1875,-0.101562 -0.0389,-0.01 -0.0858,-0.02 -0.140625,-0.0293 -0.05393,-0.0092 -0.09453,-0.01528 -0.123047,-0.02148 -0.05211,-0.01206 -0.08477,-0.03049 -0.09961,-0.04687 -0.0157,-0.01733 -0.02539,-0.041 -0.02539,-0.07813 0,-0.03717 0.01653,-0.06442 0.05273,-0.08984 0.03773,-0.02567 0.08966,-0.04102 0.158203,-0.04102 0.06302,0 0.123535,0.01036 0.183593,0.03125 0.06098,0.02062 0.10949,0.04649 0.144532,0.07617 l 0.0098,0.0078 h 0.05273 v -0.214843 l -0.01953,-0.0078 c -0.04863,-0.02119 -0.104243,-0.03859 -0.166015,-0.05273 -0.06293,-0.01441 -0.130891,-0.02148 -0.205078,-0.02148 z m 0,0.06445 c 0.07005,0 0.133985,0.0064 0.191406,0.01953 0.05119,0.01172 0.09458,0.02677 0.134766,0.04297 v 0.08984 c -0.0364,-0.02402 -0.07192,-0.04783 -0.121094,-0.06445 -0.06673,-0.02321 -0.13489,-0.03516 -0.205078,-0.03516 -0.07753,0 -0.143929,0.01582 -0.195313,0.05078 -0.05067,0.03483 -0.08008,0.08676 -0.08008,0.144531 0,0.04831 0.01262,0.08974 0.04102,0.121094 0.02926,0.03231 0.07376,0.05274 0.132812,0.06641 h 0.002 c 0.03029,0.0066 0.07249,0.01417 0.126953,0.02344 0.05358,0.0091 0.09832,0.01801 0.134766,0.02734 0.07232,0.01917 0.123165,0.04893 0.15625,0.08398 0.03191,0.03381 0.04883,0.08063 0.04883,0.148438 0,0.03485 -0.0084,0.06837 -0.02539,0.103515 v 0.002 c -0.01636,0.03478 -0.0385,0.06376 -0.06836,0.08789 -0.03355,0.02684 -0.07319,0.04704 -0.11914,0.0625 -0.04427,0.01503 -0.09972,0.02344 -0.166016,0.02344 -0.07194,0 -0.135057,-0.0064 -0.191406,-0.01953 -0.05042,-0.01182 -0.103608,-0.0325 -0.15625,-0.05469 v -0.09766 c 0.04558,0.03177 0.09121,0.06298 0.146484,0.08203 0.07075,0.02438 0.13916,0.03711 0.203125,0.03711 0.08858,0 0.160479,-0.01596 0.214844,-0.05273 0.05425,-0.03634 0.08594,-0.09177 0.08594,-0.154297 0,-0.05013 -0.0151,-0.09359 -0.04492,-0.123047 -0.02789,-0.0273 -0.06635,-0.04575 -0.115234,-0.05859 -0.03582,-0.0096 -0.07375,-0.01731 -0.115234,-0.02344 -0.03875,-0.0058 -0.0812,-0.01456 -0.125,-0.02344 h -0.002 c -0.08457,-0.01824 -0.145866,-0.04902 -0.183594,-0.08789 l -0.002,-0.002 c -0.03667,-0.04026 -0.05469,-0.09259 -0.05469,-0.160156 0,-0.07674 0.02966,-0.133853 0.0957,-0.183594 0.06619,-0.05027 0.149589,-0.07617 0.25586,-0.07617 z"
           id="path13873" />
        <path
           style="color:#000000;-inkscape-font-specification:'sans-serif, Normal';fill:#000000;stroke:none;stroke-width:0.065;stroke-miterlimit:4;stroke-dasharray:none"
           d="m -31.068359,21.849609 c -0.0787,0 -0.150714,0.0141 -0.216797,0.03906 -0.06557,0.02495 -0.12293,0.06139 -0.169922,0.109375 -0.0485,0.04949 -0.0841,0.109209 -0.109375,0.179687 -0.02536,0.07072 -0.03906,0.150701 -0.03906,0.238282 0,0.09213 0.01266,0.174226 0.03906,0.246093 0.02618,0.07079 0.06348,0.130383 0.111328,0.177735 0.04838,0.04788 0.1069,0.08282 0.171875,0.105468 0.06489,0.02195 0.135468,0.0332 0.212891,0.0332 0.04056,0 0.07872,-0.0031 0.113281,-0.0098 0.03422,-0.0062 0.06623,-0.01426 0.0957,-0.02344 0.03398,-0.01086 0.06172,-0.02062 0.08398,-0.03125 0.02037,-0.0095 0.0433,-0.02031 0.06836,-0.03125 l 0.01953,-0.0078 v -0.02148 -0.19336 h -0.05469 l -0.0078,0.0098 c -0.04748,0.04269 -0.09879,0.07276 -0.152344,0.09375 -0.0535,0.02097 -0.1099,0.0332 -0.171875,0.0332 -0.04412,0 -0.08549,-0.0087 -0.125,-0.02344 -0.03829,-0.01482 -0.07254,-0.03572 -0.101562,-0.06641 -0.02725,-0.02888 -0.0498,-0.06841 -0.06836,-0.117187 -0.01758,-0.0473 -0.02734,-0.104609 -0.02734,-0.173828 0,-0.06616 0.0093,-0.123565 0.02539,-0.171875 0.01673,-0.04934 0.03825,-0.08853 0.06641,-0.119141 0.02969,-0.0322 0.06295,-0.05565 0.09961,-0.07031 0.03745,-0.01523 0.08055,-0.02344 0.128906,-0.02344 0.0597,0 0.114323,0.01117 0.166016,0.03125 0.05157,0.02003 0.105812,0.05215 0.160156,0.09766 l 0.0078,0.0078 h 0.05469 v -0.214844 l -0.01758,-0.0098 c -0.06871,-0.03436 -0.131206,-0.05819 -0.189453,-0.07227 -0.0571,-0.01392 -0.116091,-0.02148 -0.173828,-0.02148 z m 0,0.06641 c 0.0525,0 0.105981,0.0068 0.158203,0.01953 0.04687,0.01133 0.10038,0.03287 0.158203,0.06055 v 0.08789 c -0.04469,-0.03267 -0.0895,-0.06445 -0.134766,-0.08203 -0.05947,-0.0231 -0.122373,-0.03516 -0.189453,-0.03516 -0.05545,0 -0.106196,0.0086 -0.152344,0.02734 -0.04602,0.01841 -0.0875,0.04739 -0.123046,0.08594 -0.03523,0.0383 -0.06294,0.08627 -0.08203,0.142578 -0.01881,0.05642 -0.02734,0.121715 -0.02734,0.19336 0,0.07502 0.01024,0.140752 0.03125,0.197265 0.02094,0.05504 0.04773,0.100371 0.08203,0.136719 0.03528,0.0373 0.07785,0.06574 0.125,0.08398 0.04685,0.01745 0.09702,0.02734 0.148437,0.02734 0.0694,0 0.133974,-0.01307 0.195313,-0.03711 0.04538,-0.01779 0.08625,-0.04941 0.126953,-0.08008 v 0.08789 c -0.01762,0.0078 -0.03554,0.01632 -0.05078,0.02344 -0.01816,0.0087 -0.044,0.01707 -0.07617,0.02734 -0.02656,0.0083 -0.05401,0.01572 -0.08594,0.02148 h -0.002 c -0.03018,0.0059 -0.06381,0.0098 -0.101562,0.0098 -0.0707,0 -0.13454,-0.01029 -0.191407,-0.0293 h -0.002 c -0.0556,-0.01963 -0.103272,-0.05096 -0.144531,-0.0918 -0.04035,-0.03993 -0.07228,-0.09096 -0.0957,-0.154297 -0.02321,-0.06318 -0.03516,-0.136559 -0.03516,-0.222656 0,-0.08146 0.01079,-0.154304 0.0332,-0.216797 0.0225,-0.06273 0.05417,-0.113874 0.0957,-0.15625 0.04029,-0.04114 0.08895,-0.07185 0.146484,-0.09375 0.05794,-0.02189 0.121397,-0.0332 0.19336,-0.0332 z"
           id="path13875" />
        <path
           style="color:#000000;-inkscape-font-specification:'sans-serif, Normal';fill:#000000;stroke:none;stroke-width:0.065;stroke-miterlimit:4;stroke-dasharray:none"
           d="m -30.558594,21.869141 v 1.091796 h 0.714844 v -0.0332 -0.154297 h -0.511719 v -0.904296 z m 0.06641,0.06445 h 0.07031 v 0.90625 h 0.513672 v 0.05469 h -0.583984 z"
           id="path13877" />
      </g>
      <g
         aria-label="Gnd"
         transform="matrix(1.0020659,0,0,0.85554324,55.425747,25.268482)"
         id="text13336"
         style="font-size:1.41111px;-inkscape-font-specification:'sans-serif, Normal';fill:none;stroke:#000000;stroke-width:0.065;stroke-miterlimit:4;stroke-dasharray:none">
        <path
           style="color:#000000;-inkscape-font-specification:'sans-serif, Normal';fill:#000000;stroke:none;stroke-width:0.065;stroke-miterlimit:4;stroke-dasharray:none"
           d="m -31.955078,24.572266 c -0.173362,0 -0.315263,0.05062 -0.417969,0.152343 -0.102213,0.101231 -0.152344,0.239858 -0.152344,0.410157 0,0.09268 0.01356,0.174512 0.04102,0.246093 0.02726,0.07058 0.06613,0.131603 0.117188,0.179688 0.05048,0.04752 0.111055,0.0821 0.18164,0.105469 0.07029,0.02327 0.147555,0.03516 0.230469,0.03516 0.0653,0 0.132453,-0.0097 0.201172,-0.0293 0.06797,-0.01969 0.131777,-0.04189 0.189453,-0.06836 l 0.01758,-0.0098 v -0.01953 -0.47461 h -0.474609 v 0.185547 h 0.27539 v 0.195313 c -0.02686,0.0099 -0.05503,0.0185 -0.08984,0.02539 -0.04157,0.0083 -0.08304,0.01367 -0.125,0.01367 -0.113733,0 -0.198321,-0.03483 -0.261719,-0.101562 -0.06316,-0.0669 -0.0957,-0.160057 -0.0957,-0.28711 0,-0.120127 0.03139,-0.210688 0.0918,-0.277343 0.06086,-0.06712 0.140186,-0.09961 0.248046,-0.09961 0.04894,0 0.09201,0.0048 0.128907,0.01367 0.03868,0.0088 0.0722,0.02001 0.101562,0.0332 0.02446,0.01116 0.05032,0.02392 0.07617,0.04102 0.02672,0.01767 0.04746,0.03284 0.06055,0.04297 l 0.0078,0.0059 h 0.05664 v -0.214844 l -0.01953,-0.0078 c -0.07202,-0.03437 -0.139122,-0.05978 -0.203125,-0.07422 -0.06289,-0.01477 -0.124563,-0.02148 -0.185547,-0.02148 z m 0,0.06445 c 0.0557,0 0.113503,0.0078 0.171875,0.02148 0.05283,0.01192 0.110485,0.03446 0.171875,0.0625 v 0.08594 c -0.0089,-0.0061 -0.01459,-0.01044 -0.02539,-0.01758 -0.02834,-0.01874 -0.05607,-0.03609 -0.08398,-0.04883 -0.03402,-0.01529 -0.07111,-0.02753 -0.113281,-0.03711 -0.04303,-0.01039 -0.09149,-0.01563 -0.144532,-0.01563 -0.121813,0 -0.223609,0.04225 -0.296875,0.123047 -0.07281,0.08034 -0.107421,0.188719 -0.107421,0.320312 0,0.138449 0.0368,0.251019 0.113281,0.332032 0.07624,0.08026 0.181629,0.121093 0.308594,0.121093 0.04624,0 0.09102,-0.0045 0.136718,-0.01367 0.04577,-0.0091 0.08749,-0.02034 0.123047,-0.03516 l 0.01953,-0.0098 v -0.304688 h -0.27539 v -0.05469 h 0.345703 v 0.384765 c -0.04949,0.02164 -0.10208,0.04177 -0.160156,0.05859 -0.06357,0.0181 -0.124874,0.02734 -0.183594,0.02734 -0.07694,0 -0.146061,-0.01042 -0.208984,-0.03125 -0.06263,-0.02073 -0.114981,-0.05111 -0.158204,-0.0918 -0.04357,-0.04104 -0.07738,-0.09362 -0.101562,-0.15625 -0.02399,-0.06255 -0.03711,-0.136195 -0.03711,-0.222656 0,-0.157675 0.04589,-0.277215 0.134765,-0.365235 0.0893,-0.08845 0.210053,-0.132812 0.371094,-0.132812 z"
           id="path13892" />
        <path
           style="color:#000000;-inkscape-font-specification:'sans-serif, Normal';fill:#000000;stroke:none;stroke-width:0.065;stroke-miterlimit:4;stroke-dasharray:none"
           d="m -30.962891,24.826172 c -0.04996,0 -0.09947,0.01075 -0.146484,0.03125 -0.02779,0.01212 -0.05363,0.03121 -0.08008,0.04883 v -0.05859 h -0.193359 v 0.833985 h 0.193359 v -0.589844 c 0.02988,-0.02172 0.05978,-0.04021 0.0918,-0.05469 0.03519,-0.01592 0.06764,-0.02344 0.09766,-0.02344 0.03142,0 0.05656,0.0047 0.07227,0.01172 0.01595,0.0068 0.02513,0.01574 0.0332,0.0293 h 0.002 v 0.002 c 0.0073,0.01161 0.01383,0.03031 0.01758,0.05859 0.0039,0.02915 0.0059,0.0616 0.0059,0.0957 v 0.470704 h 0.195313 v -0.0332 -0.498046 c 0,-0.09919 -0.02395,-0.180607 -0.07422,-0.238282 -0.05035,-0.05777 -0.125179,-0.08594 -0.214844,-0.08594 z m 0,0.06445 c 0.07662,0 0.129095,0.02209 0.166016,0.06445 0.03701,0.04246 0.05664,0.106166 0.05664,0.195313 v 0.466796 h -0.06445 v -0.40625 c 0,-0.03663 -0.0015,-0.07111 -0.0059,-0.103515 -0.0045,-0.03418 -0.01262,-0.06263 -0.02734,-0.08594 -0.0149,-0.02503 -0.03723,-0.0431 -0.06445,-0.05469 -0.02747,-0.01227 -0.06017,-0.01758 -0.09766,-0.01758 -0.04071,0 -0.08106,0.01031 -0.123047,0.0293 -0.04094,0.01852 -0.07996,0.04179 -0.117187,0.07031 l -0.01367,0.0098 v 0.558593 h -0.06445 v -0.705078 h 0.06445 v 0.121094 l 0.05273,-0.04297 c 0.03834,-0.03181 0.07903,-0.05673 0.119141,-0.07422 0.03935,-0.01716 0.07815,-0.02539 0.11914,-0.02539 z"
           id="path13894" />
        <path
           style="color:#000000;-inkscape-font-specification:'sans-serif, Normal';fill:#000000;stroke:none;stroke-width:0.065;stroke-miterlimit:4;stroke-dasharray:none"
           d="m -29.996094,24.544922 v 0.316406 c -0.01881,-0.0077 -0.03845,-0.01667 -0.05664,-0.02148 -0.03474,-0.0097 -0.07443,-0.01367 -0.117188,-0.01367 -0.04902,0 -0.09688,0.0092 -0.142578,0.0293 -0.04555,0.02025 -0.08505,0.04979 -0.119141,0.08789 -0.03465,0.03917 -0.062,0.0864 -0.08203,0.140625 -0.01987,0.05515 -0.0293,0.117269 -0.0293,0.185547 0,0.130044 0.0266,0.236348 0.08594,0.314453 0.0596,0.07777 0.145883,0.119141 0.246094,0.119141 0.05142,0 0.09982,-0.0095 0.144531,-0.0293 0.02452,-0.01087 0.04713,-0.02936 0.07031,-0.04492 v 0.05273 h 0.195313 v -0.0332 -1.103515 z m 0.06641,0.06445 h 0.06445 v 1.007812 h -0.06445 v -0.11914 l -0.05469,0.04492 c -0.03506,0.0303 -0.07021,0.05382 -0.107422,0.07031 -0.03613,0.01601 -0.07593,0.02539 -0.11914,0.02539 -0.08353,0 -0.144548,-0.03005 -0.19336,-0.09375 -0.04814,-0.06337 -0.07422,-0.154632 -0.07422,-0.275391 0,-0.06217 0.0085,-0.115279 0.02539,-0.162109 0.01764,-0.04775 0.04157,-0.0886 0.07031,-0.121094 0.02837,-0.03171 0.06052,-0.0538 0.09766,-0.07031 0.03791,-0.01666 0.07514,-0.02539 0.115234,-0.02539 0.03808,0 0.07187,0.004 0.09961,0.01172 0.02848,0.0075 0.05909,0.02011 0.0918,0.03711 l 0.04883,0.02539 z m -0.216797,0.333984 c -0.08012,0 -0.148963,0.02995 -0.195313,0.08789 -0.04648,0.05811 -0.06836,0.13882 -0.06836,0.236328 0,0.09511 0.0163,0.170844 0.05273,0.226563 0.03729,0.05648 0.101392,0.08594 0.177735,0.08594 0.04149,0 0.08187,-0.0098 0.123046,-0.02734 h 0.002 c 0.04019,-0.01764 0.0766,-0.04096 0.111328,-0.06836 l -0.05273,-0.02344 0.06445,-0.002 h 0.002 v -0.46289 l -0.01953,-0.0078 c -0.03642,-0.01629 -0.07104,-0.02855 -0.101562,-0.03516 -0.03016,-0.0066 -0.0611,-0.0098 -0.0957,-0.0098 z m 0,0.06641 c 0.03062,0 0.05708,0.0024 0.08203,0.0078 0.01919,0.0042 0.04373,0.01346 0.06836,0.02344 v 0.40039 c -0.0269,0.01978 -0.05554,0.03939 -0.08594,0.05273 v -0.002 c -0.03416,0.01458 -0.06565,0.02148 -0.09766,0.02148 -0.06147,0 -0.09787,-0.01655 -0.123047,-0.05469 -0.02604,-0.03983 -0.04297,-0.103698 -0.04297,-0.191406 0,-0.08807 0.02033,-0.152364 0.05469,-0.195312 0.0345,-0.04312 0.0795,-0.0625 0.144532,-0.0625 z"
           id="path13896" />
      </g>
      <g
         aria-label="Vin"
         transform="matrix(1.0020659,0,0,0.85554324,55.668982,25.862787)"
         id="text13340"
         style="font-size:1.41111px;-inkscape-font-specification:'sans-serif, Normal';fill:none;stroke:#000000;stroke-width:0.065;stroke-miterlimit:4;stroke-dasharray:none">
        <path
           style="color:#000000;-inkscape-font-specification:'sans-serif, Normal';fill:#000000;stroke:none;stroke-width:0.065;stroke-miterlimit:4;stroke-dasharray:none"
           d="m -32.474609,27.019531 0.396484,1.089844 h 0.226563 l 0.398437,-1.089844 H -31.5 -31.662109 l -0.298828,0.835938 -0.298829,-0.835938 z m 0.0918,0.06445 h 0.07617 l 0.34375,0.960938 h -0.07031 z m 0.765625,0 h 0.07031 l -0.349609,0.960938 h -0.0625 z"
           id="path13911" />
        <path
           style="color:#000000;-inkscape-font-specification:'sans-serif, Normal';fill:#000000;stroke:none;stroke-width:0.065;stroke-miterlimit:4;stroke-dasharray:none"
           d="m -31.394531,27.011719 v 0.199218 h 0.210937 v -0.03125 -0.167968 z m 0.06445,0.06445 h 0.08203 v 0.07031 h -0.08203 z m -0.05664,0.199219 v 0.833984 h 0.195313 v -0.03125 -0.802734 z m 0.06641,0.06445 h 0.06445 v 0.705078 h -0.06445 z"
           id="path13913" />
        <path
           style="color:#000000;-inkscape-font-specification:'sans-serif, Normal';fill:#000000;stroke:none;stroke-width:0.065;stroke-miterlimit:4;stroke-dasharray:none"
           d="m -30.578125,27.253906 c -0.04996,0 -0.09947,0.01075 -0.146484,0.03125 -0.02791,0.01217 -0.05353,0.03306 -0.08008,0.05078 v -0.06055 h -0.19336 v 0.833984 h 0.19336 v -0.587891 c 0.02991,-0.02175 0.05975,-0.04215 0.0918,-0.05664 0.03518,-0.01592 0.06763,-0.02344 0.09766,-0.02344 0.03142,0 0.05461,0.0047 0.07031,0.01172 h 0.002 v 0.002 c 0.01596,0.0068 0.02514,0.01575 0.0332,0.0293 h 0.002 c 0.0073,0.01161 0.01383,0.03226 0.01758,0.06055 0.0039,0.02915 0.0059,0.05965 0.0059,0.09375 v 0.470703 h 0.193359 v -0.03125 -0.5 c 0,-0.09919 -0.02199,-0.180607 -0.07227,-0.238281 -0.05036,-0.05777 -0.125179,-0.08594 -0.214844,-0.08594 z m 0,0.06445 c 0.07662,0 0.129095,0.02209 0.166016,0.06445 0.03701,0.04246 0.05664,0.106166 0.05664,0.195313 v 0.466797 h -0.06445 v -0.40625 c 0,-0.03663 -0.0015,-0.07111 -0.0059,-0.103516 -0.0044,-0.03347 -0.01319,-0.06094 -0.02734,-0.08398 -0.0149,-0.02504 -0.03723,-0.04506 -0.06445,-0.05664 -0.02747,-0.01227 -0.06017,-0.01758 -0.09766,-0.01758 -0.04072,0 -0.08107,0.01031 -0.123047,0.0293 -0.04095,0.01852 -0.07996,0.04178 -0.117188,0.07031 l -0.01367,0.0098 v 0.558594 h -0.06445 v -0.705078 h 0.06445 v 0.123047 l 0.05273,-0.04492 c 0.03834,-0.03181 0.07903,-0.05673 0.11914,-0.07422 0.03935,-0.01716 0.07815,-0.02539 0.119141,-0.02539 z"
           id="path13915" />
      </g>
      <g
         aria-label="AHT10"
         transform="matrix(0,1.0306738,-1.6874919,0,54.761102,71.198873)"
         id="text13404"
         style="font-size:1.41111px;-inkscape-font-specification:'sans-serif, Normal';fill:none;fill-opacity:0.997783;stroke:#000000;stroke-width:0.1">
        <path
           style="color:#000000;-inkscape-font-specification:'sans-serif, Normal';fill:#000000;fill-opacity:1;stroke:none;-inkscape-stroke:none"
           d="m -28.501953,20.679687 -0.410156,1.125 h 0.246093 l 0.101563,-0.285156 h 0.371094 l 0.101562,0.285156 h 0.251953 l -0.02344,-0.06641 -0.386716,-1.05859 z m 0.07031,0.09961 h 0.02344 l -0.222656,0.623047 h 0.501953 l -0.02344,-0.06641 -0.197265,-0.55664 h 0.0293 l 0.33789,0.925781 h -0.03906 l -0.09961,-0.285156 h -0.515625 l -0.09961,0.285156 h -0.0332 z m 0.05273,0.216797 0.109375,0.30664 h -0.21875 z"
           id="path13751" />
        <path
           style="color:#000000;-inkscape-font-specification:'sans-serif, Normal';fill:#000000;fill-opacity:1;stroke:none;-inkscape-stroke:none"
           d="m -27.804687,20.679687 v 1.125 h 0.236328 v -0.501953 h 0.412109 v 0.501953 h 0.236328 v -0.04883 -1.076172 h -0.236328 v 0.402344 h -0.412109 v -0.402344 z m 0.09961,0.09961 h 0.03516 v 0.402344 h 0.613281 v -0.402344 h 0.03516 v 0.925781 h -0.03516 v -0.501953 h -0.613281 v 0.501953 h -0.03516 z"
           id="path13753" />
        <path
           style="color:#000000;-inkscape-font-specification:'sans-serif, Normal';fill:#000000;fill-opacity:1;stroke:none;-inkscape-stroke:none"
           d="m -26.882812,20.679687 v 0.220704 h 0.367187 v 0.904296 h 0.236328 v -0.904296 h 0.367188 v -0.04883 -0.171875 z m 0.101562,0.09961 h 0.769531 v 0.02148 h -0.367187 v 0.904297 h -0.03711 v -0.904297 h -0.365234 z"
           id="path13755" />
        <path
           style="color:#000000;-inkscape-font-specification:'sans-serif, Normal';fill:#000000;fill-opacity:1;stroke:none;-inkscape-stroke:none"
           d="m -25.578125,20.675781 -0.002,0.04687 c -0.0015,0.02359 -0.008,0.0387 -0.01367,0.04687 -0.0071,0.01033 -0.01599,0.01905 -0.03125,0.02734 -0.0084,0.0046 -0.02872,0.01105 -0.05859,0.01563 -0.0311,0.0043 -0.05965,0.0059 -0.08594,0.0059 h -0.05078 v 0.195313 h 0.214843 v 0.58789 h -0.214843 v 0.203125 h 0.65625 v -0.04883 -0.154297 h -0.208985 v -0.925781 z m 0.08203,0.09961 h 0.02148 v 0.925781 h 0.210937 v 0.0039 h -0.455078 v -0.0039 h 0.212891 v -0.789063 h -0.164063 c 0.03627,-0.0056 0.06626,-0.01356 0.0918,-0.02734 0.02656,-0.01443 0.04966,-0.03456 0.06641,-0.05859 0.0099,-0.01433 0.01074,-0.03382 0.01563,-0.05078 z"
           id="path13757" />
        <path
           style="color:#000000;-inkscape-font-specification:'sans-serif, Normal';fill:#000000;fill-opacity:1;stroke:none;-inkscape-stroke:none"
           d="m -24.613281,20.658203 c -0.133675,0 -0.244211,0.05347 -0.310547,0.154297 -0.06631,0.100252 -0.09375,0.244033 -0.09375,0.431641 0,0.186185 0.02673,0.329177 0.0918,0.429687 0.06597,0.101083 0.177579,0.152344 0.3125,0.152344 0.133071,0 0.242136,-0.05097 0.308594,-0.150391 0.06703,-0.100014 0.0957,-0.244159 0.0957,-0.433594 0,-0.183998 -0.02844,-0.326612 -0.09375,-0.427734 -0.06535,-0.102533 -0.17544,-0.15625 -0.310547,-0.15625 z m 0,0.09961 c 0.02883,0 0.03512,0.02449 0.05859,0.0293 -0.01994,-0.0043 -0.03661,-0.01563 -0.05859,-0.01563 -0.02317,0 -0.04148,0.01082 -0.0625,0.01563 0.02436,-0.0053 0.03238,-0.0293 0.0625,-0.0293 z m -0.158203,0.07617 c -0.02383,0.02187 -0.04809,0.04457 -0.0625,0.07617 -0.01886,0.04104 -0.0288,0.09021 -0.03516,0.148438 -0.0057,0.05664 -0.0098,0.118904 -0.0098,0.185547 0,0.07284 0.0025,0.132803 0.0078,0.183593 0.0055,0.05249 0.01827,0.10106 0.03711,0.144532 0.01414,0.03342 0.03929,0.05707 0.06445,0.08008 -0.01994,-0.01558 -0.05716,-0.01007 -0.07227,-0.0332 -0.04793,-0.07404 -0.07617,-0.199221 -0.07617,-0.375 0,-0.177112 0.02959,-0.303572 0.07813,-0.376954 0.01465,-0.02227 0.04945,-0.01794 0.06836,-0.0332 z m 0.314453,0 c 0.01954,0.01573 0.05547,0.01187 0.07031,0.03516 0.04861,0.07527 0.07813,0.199674 0.07813,0.373046 0,0.178961 -0.0294,0.304254 -0.07813,0.376954 -0.01534,0.02295 -0.05219,0.01779 -0.07227,0.0332 0.02542,-0.02245 0.05017,-0.04494 0.06445,-0.07813 0.0185,-0.0428 0.03117,-0.09054 0.03711,-0.144532 0.0063,-0.05324 0.0098,-0.115345 0.0098,-0.1875 0,-0.07125 -0.0035,-0.133468 -0.0098,-0.1875 -0.006,-0.05548 -0.01768,-0.104321 -0.03711,-0.146484 -0.01406,-0.03095 -0.03893,-0.05262 -0.0625,-0.07422 z m -0.15625,0.03906 c 0.0368,0 0.06263,0.0062 0.08008,0.01758 0.01909,0.01221 0.03401,0.03029 0.04687,0.05859 0.01359,0.02949 0.0242,0.06977 0.0293,0.117187 0.0057,0.04886 0.0078,0.107393 0.0078,0.175781 0,0.06933 -0.0021,0.127968 -0.0078,0.175782 -0.0051,0.04615 -0.01563,0.08557 -0.0293,0.117187 -0.01244,0.02889 -0.02778,0.04658 -0.04687,0.05859 -0.01884,0.01185 -0.04381,0.01953 -0.08008,0.01953 -0.03824,0 -0.06451,-0.0082 -0.08203,-0.01953 -0.01889,-0.01291 -0.03473,-0.03184 -0.04687,-0.06055 -0.0142,-0.03278 -0.02468,-0.07126 -0.0293,-0.115234 -0.0048,-0.04567 -0.0078,-0.103349 -0.0078,-0.173828 0,-0.06382 0.0044,-0.123105 0.0098,-0.175782 0.0056,-0.05109 0.01496,-0.09024 0.02734,-0.117187 0.01315,-0.02884 0.03043,-0.04652 0.04883,-0.05859 0.01884,-0.01185 0.04381,-0.01953 0.08008,-0.01953 z m -0.06836,0.822265 c 0.02297,0.0057 0.04241,0.01758 0.06836,0.01758 0.02403,0 0.04275,-0.0124 0.06445,-0.01758 -0.02508,0.0057 -0.03318,0.03125 -0.06445,0.03125 -0.03313,0 -0.04217,-0.02499 -0.06836,-0.03125 z"
           id="path13759" />
      </g>
      <path
         style="fill:none;stroke:#000000;stroke-width:0.29;stroke-linecap:round;stroke-linejoin:round;stroke-miterlimit:4;stroke-dasharray:none;stroke-opacity:1"
         d="m 26.5,41.5516 h 7.59"
         id="path27613" />
      <path
         style="fill:none;stroke:#000000;stroke-width:0.29;stroke-linecap:round;stroke-linejoin:miter;stroke-miterlimit:4;stroke-dasharray:none;stroke-opacity:1"
         d="m 26.5,44.091601 h 7.59"
         id="path27697" />
      <path
         style="fill:none;stroke:#000000;stroke-width:0.29;stroke-linecap:round;stroke-linejoin:miter;stroke-miterlimit:4;stroke-dasharray:none;stroke-opacity:1"
         d="m 26.5,46.631601 h 7.635833"
         id="path27779" />
      <path
         style="fill:none;stroke:#000000;stroke-width:0.29;stroke-linecap:round;stroke-linejoin:miter;stroke-miterlimit:4;stroke-dasharray:none;stroke-opacity:1"
         d="m 26.5,49.171601 h 7.59"
         id="path27781" />
      <ellipse
         style="fill:#fefeff;fill-opacity:1;stroke:#000000;stroke-width:0.29;stroke-linejoin:round;stroke-miterlimit:4;stroke-dasharray:none;stroke-opacity:1"
         id="SDA"
         cx="34.279999"
         cy="41.551601"
         rx="0.11235978"
         ry="0.11235962"
         inkscape:label="#SDA" />
      <ellipse
         style="fill:#fefeff;fill-opacity:1;stroke:#000000;stroke-width:0.29;stroke-linejoin:round;stroke-miterlimit:4;stroke-dasharray:none;stroke-opacity:1"
         id="SCL"
         cx="34.280003"
         cy="44.091602"
         rx="0.11235978"
         ry="0.11235962"
         inkscape:label="#SCL" />
      <ellipse
         style="fill:#fefeff;fill-opacity:1;stroke:#000000;stroke-width:0.29;stroke-linejoin:round;stroke-miterlimit:4;stroke-dasharray:none;stroke-opacity:1"
         id="Gnd"
         cx="34.279999"
         cy="46.631603"
         rx="0.11235978"
         ry="0.11235962"
         inkscape:label="#Gnd" />
      <ellipse
         style="fill:#fefeff;fill-opacity:1;stroke:#000000;stroke-width:0.29;stroke-linejoin:round;stroke-miterlimit:4;stroke-dasharray:none;stroke-opacity:1"
         id="Vin"
         cx="34.279999"
         cy="49.1716"
         rx="0.11235978"
         ry="0.11235962"
         inkscape:label="#Vin" />
    </g>
    <rect
       style="fill:#fefeff;fill-opacity:1;stroke:#000000;stroke-width:1.38;stroke-linecap:round;stroke-linejoin:round;stroke-miterlimit:4;stroke-dasharray:none;stroke-opacity:1"
       id="rect28524"
       width="8.0500002"
       height="4.5999999"
       x="8.3400002"
       y="20.801601"
       ry="0.45000333" />
  </g>
</svg>
