<?xml version="1.0" encoding="UTF-8" standalone="no"?>
<!-- Created with Inkscape (http://www.inkscape.org/) -->

<svg
   width="31mm"
   height="10mm"
   viewBox="0 0 31 10"
   version="1.1"
   id="svg13975"
   inkscape:version="1.1.1 (c3084ef, 2021-09-22)"
   sodipodi:docname="RX470C.svg"
   xmlns:inkscape="http://www.inkscape.org/namespaces/inkscape"
   xmlns:sodipodi="http://sodipodi.sourceforge.net/DTD/sodipodi-0.dtd"
   xmlns="http://www.w3.org/2000/svg"
   xmlns:svg="http://www.w3.org/2000/svg">
  <sodipodi:namedview
     id="namedview13977"
     pagecolor="#ffffff"
     bordercolor="#666666"
     borderopacity="1.0"
     inkscape:pageshadow="2"
     inkscape:pageopacity="0.0"
     inkscape:pagecheckerboard="0"
     inkscape:document-units="mm"
     showgrid="true"
     showguides="false"
     objecttolerance="10000"
     inkscape:snap-bbox="true"
     inkscape:snap-object-midpoints="true"
     inkscape:zoom="4.4685185"
     inkscape:cx="95.221716"
     inkscape:cy="48.226275"
     inkscape:window-width="1440"
     inkscape:window-height="855"
     inkscape:window-x="0"
     inkscape:window-y="23"
     inkscape:window-maximized="0"
     inkscape:current-layer="layer1">
    <inkscape:grid
       type="xygrid"
       id="grid13979"
       spacingx="2.54"
       spacingy="2.54"
       enabled="true"
       originx="15.5"
       originy="4.9999999"
       units="mm" />
  </sodipodi:namedview>
  <defs
     id="defs13972" />
  <g
     inkscape:label="Layer 1"
     inkscape:groupmode="layer"
     id="layer1"
     transform="translate(-11.005333,-48.134335)">
    <rect
       style="fill:#009248;fill-opacity:1;stroke:none;stroke-width:0.0649999"
       id="rect14003"
       width="10"
       height="31"
       x="48.134335"
       y="-42.005333"
       transform="rotate(90)" />
    <rect
       style="fill:#00000b;fill-opacity:1;stroke:none;stroke-width:0.0649999"
       id="rect14236"
       width="8.7365417"
       height="2.6881666"
       x="13.440833"
       y="51.075169" />
    <rect
       style="fill:#c6d9d9;fill-opacity:1;stroke:none;stroke-width:0.365;stroke-linejoin:round;stroke-miterlimit:4;stroke-dasharray:none;stroke-opacity:1;paint-order:stroke fill markers"
       id="rect14350"
       width="10.080625"
       height="3.3602076"
       x="28.22575"
       y="49.731087"
       ry="1.6801038" />
    <circle
       style="fill:#ffcc00;fill-opacity:1;stroke:none;stroke-width:0.243334;stroke-linejoin:round;stroke-miterlimit:4;stroke-dasharray:none;stroke-opacity:1;paint-order:stroke fill markers"
       id="circle15279"
       cx="31.585333"
       cy="55.674335"
       r="1" />
    <circle
       style="fill:#c6d9d9;fill-opacity:1;stroke:none;stroke-width:0.243334;stroke-linejoin:round;stroke-miterlimit:4;stroke-dasharray:none;stroke-opacity:1;paint-order:stroke fill markers"
       id="Gnd"
       cx="31.585333"
       cy="55.674335"
       r="0.66666669"
       inkscape:label="#Gnd" />
    <circle
       style="fill:#ffcc00;fill-opacity:1;stroke:none;stroke-width:0.243334;stroke-linejoin:round;stroke-miterlimit:4;stroke-dasharray:none;stroke-opacity:1;paint-order:stroke fill markers"
       id="circle15365"
       cx="39.205334"
       cy="55.674335"
       r="1" />
    <circle
       style="fill:#c6d9d9;fill-opacity:1;stroke:none;stroke-width:0.243334;stroke-linejoin:round;stroke-miterlimit:4;stroke-dasharray:none;stroke-opacity:1;paint-order:stroke fill markers"
       id="Vcc"
       cx="39.205334"
       cy="55.674335"
       r="0.66666669"
       inkscape:label="#Vcc" />
    <circle
       style="fill:#ffcc00;fill-opacity:1;stroke:none;stroke-width:0.243334;stroke-linejoin:round;stroke-miterlimit:4;stroke-dasharray:none;stroke-opacity:1;paint-order:stroke fill markers"
       id="circle15371"
       cx="36.665333"
       cy="55.674335"
       r="1" />
    <circle
       style="fill:#c6d9d9;fill-opacity:1;stroke:none;stroke-width:0.243334;stroke-linejoin:round;stroke-miterlimit:4;stroke-dasharray:none;stroke-opacity:1;paint-order:stroke fill markers"
       id="circle15373"
       cx="36.665333"
       cy="55.674335"
       r="0.66666669" />
    <circle
       style="fill:#ffcc00;fill-opacity:1;stroke:none;stroke-width:0.243334;stroke-linejoin:round;stroke-miterlimit:4;stroke-dasharray:none;stroke-opacity:1;paint-order:stroke fill markers"
       id="circle15377"
       cx="34.125332"
       cy="55.674335"
       r="1" />
    <circle
       style="fill:#c6d9d9;fill-opacity:1;stroke:none;stroke-width:0.243334;stroke-linejoin:round;stroke-miterlimit:4;stroke-dasharray:none;stroke-opacity:1;paint-order:stroke fill markers"
       id="Data"
       cx="34.125332"
       cy="55.674335"
       r="0.66666669"
       inkscape:label="#Data" />
    <g
       aria-label="Gnd"
       transform="matrix(0,-0.99213524,1.0079271,0,7.5431734,0.12650466)"
       id="text16595"
       style="font-size:1.70618px;fill:none;stroke:#000000;stroke-width:0.143;stroke-miterlimit:4;stroke-dasharray:none">
      <path
         style="color:#000000;fill:#000000;stroke:none;stroke-width:0.143;stroke-miterlimit:4;stroke-dasharray:none"
         d="m -53.480469,30.556641 c -0.215718,0 -0.39652,0.06379 -0.527343,0.193359 -0.130196,0.128943 -0.195313,0.307369 -0.195313,0.519531 0,0.115147 0.01587,0.219522 0.05078,0.310547 0.03448,0.08928 0.08495,0.164932 0.150391,0.226563 0.06463,0.06083 0.143138,0.107161 0.232422,0.136718 0.08863,0.02934 0.185848,0.04297 0.289062,0.04297 0.08222,0 0.166316,-0.01272 0.251953,-0.03711 0.08354,-0.0242 0.161063,-0.05123 0.232422,-0.08398 l 0.04102,-0.01953 v -0.04687 -0.603516 h -0.638672 v 0.289063 h 0.333984 v 0.177734 c -0.02631,0.0086 -0.05106,0.01887 -0.08398,0.02539 -0.04822,0.0096 -0.09593,0.01367 -0.144531,0.01367 -0.130959,0 -0.222677,-0.03734 -0.292969,-0.111328 -0.06976,-0.07389 -0.107422,-0.178197 -0.107422,-0.326172 0,-0.139566 0.03662,-0.238685 0.103516,-0.3125 0.06745,-0.07438 0.15189,-0.111328 0.27539,-0.111328 0.05714,0 0.106861,0.0056 0.148438,0.01563 h 0.002 c 0.04503,0.01023 0.08399,0.02415 0.117188,0.03906 0.02785,0.0127 0.05591,0.02898 0.08594,0.04883 0.03194,0.02112 0.05563,0.03746 0.07031,0.04883 l 0.01953,0.01563 h 0.111328 v -0.3125 l -0.04102,-0.01953 c -0.0882,-0.04209 -0.172174,-0.07365 -0.251953,-0.0918 h -0.002 c -0.07762,-0.01809 -0.154748,-0.02734 -0.230469,-0.02734 z m -0.002,0.142578 c 7.63e-4,-2e-6 0.0012,0 0.002,0 0.03869,0 0.0792,0.008 0.119141,0.01367 -0.03807,-0.0072 -0.07809,-0.01242 -0.121094,-0.01367 z m 0.15625,0.01758 c 0.01524,0.0028 0.02949,0.0022 0.04492,0.0059 v 0.002 c 0.05523,0.01246 0.119118,0.03827 0.183594,0.06641 v 0.02148 c -0.02884,-0.01799 -0.05711,-0.03568 -0.08594,-0.04883 -0.04291,-0.01928 -0.09061,-0.03496 -0.142578,-0.04687 z m -0.40039,0.07031 c -0.05425,0.02585 -0.124956,0.02308 -0.166016,0.06836 -0.09417,0.103912 -0.138672,0.243412 -0.138672,0.408203 0,0.173045 0.0474,0.320834 0.146484,0.425781 0.09712,0.102232 0.233509,0.150863 0.390625,0.152344 -0.08405,-0.0013 -0.162087,-0.01252 -0.230468,-0.03516 -0.07178,-0.02376 -0.13102,-0.05771 -0.179688,-0.103516 -0.04897,-0.04612 -0.08556,-0.103994 -0.113281,-0.175781 -0.02729,-0.07115 -0.04297,-0.156354 -0.04297,-0.257813 0,-0.18439 0.05149,-0.318088 0.152344,-0.417969 0.04301,-0.0426 0.124532,-0.03968 0.181641,-0.06445 z m 0.277343,0.550782 h 0.351563 V 31.75 c -0.006,0.0025 -0.01338,0.0034 -0.01953,0.0059 v -0.416015 h -0.332032 z"
         id="path21245" />
      <path
         style="color:#000000;fill:#000000;stroke:none;stroke-width:0.143;stroke-miterlimit:4;stroke-dasharray:none"
         d="m -52.28125,30.863281 c -0.06486,0 -0.128815,0.01261 -0.189453,0.03906 -0.01773,0.0077 -0.03354,0.02179 -0.05078,0.03125 v -0.04492 h -0.300782 v 1.074219 h 0.300782 v -0.726563 c 0.02985,-0.02047 0.0603,-0.04239 0.0918,-0.05664 0.03918,-0.01772 0.07251,-0.02344 0.103515,-0.02344 0.03498,0 0.06104,0.0039 0.07422,0.0098 v 0.002 c 0.01371,0.0058 0.02098,0.01079 0.02734,0.02148 v 0.002 c 0.0052,0.0082 0.01344,0.0273 0.01758,0.05859 0.0045,0.03363 0.0059,0.07135 0.0059,0.111328 v 0.601563 h 0.300781 v -0.07227 -0.603516 c 0,-0.124898 -0.03031,-0.231317 -0.09766,-0.308593 -0.06754,-0.0775 -0.168323,-0.115235 -0.283203,-0.115235 z m 0,0.142578 c 0.0346,0 0.04545,0.02014 0.07031,0.02734 -0.03234,-0.012 -0.06707,-0.01875 -0.105469,-0.01953 0.01174,-0.0013 0.02321,-0.0078 0.03516,-0.0078 z m -0.396484,0.02539 h 0.01172 v 0.128906 0.05664 0.603515 h -0.01172 z m 0.488281,0.0098 c 0.02665,0.01109 0.06587,0.01046 0.08398,0.03125 0.03817,0.0438 0.0625,0.112033 0.0625,0.214843 v 0.533203 h -0.01367 v -0.458984 c 0,-0.04555 -0.0023,-0.08811 -0.0078,-0.128906 -0.0057,-0.04336 -0.01651,-0.08175 -0.03711,-0.115235 l -0.002,-0.002 c -0.02,-0.03248 -0.05148,-0.05784 -0.08594,-0.07422 z"
         id="path21247" />
      <path
         style="color:#000000;fill:#000000;stroke:none;stroke-width:0.143;stroke-miterlimit:4;stroke-dasharray:none"
         d="m -51.144531,30.523437 v 0.369141 c -0.0091,-0.0029 -0.01834,-0.0093 -0.02734,-0.01172 h -0.002 c -0.04499,-0.01237 -0.09511,-0.01758 -0.148438,-0.01758 -0.0637,0 -0.124486,0.01308 -0.183593,0.03906 h -0.002 c -0.05923,0.02633 -0.110236,0.06599 -0.154297,0.115234 h -0.002 c -0.04481,0.05066 -0.07811,0.11092 -0.103516,0.179688 h -0.002 c -0.02551,0.0708 -0.03711,0.150748 -0.03711,0.236328 0,0.161837 0.03599,0.296701 0.113282,0.398437 0.0774,0.101011 0.190881,0.15625 0.320312,0.15625 0.06623,0 0.131132,-0.01321 0.189453,-0.03906 0.01386,-0.0061 0.02557,-0.01809 0.03906,-0.02539 v 0.03906 h 0.300781 v -0.07227 -1.367188 z M -51,30.666016 h 0.01367 v 1.154296 H -51 v -0.123046 -0.03516 -0.02539 -0.521485 -0.0332 z m -0.322266,0.339843 c 0.0084,0 0.01358,0.0016 0.02148,0.002 -0.10168,0.0017 -0.193322,0.04146 -0.253906,0.117188 -0.06221,0.07776 -0.08984,0.182115 -0.08984,0.304687 0,0.118668 0.01916,0.215772 0.06836,0.291016 0.05026,0.07613 0.140518,0.115898 0.238281,0.117188 -0.01221,0.0013 -0.02218,0.0078 -0.03516,0.0078 -0.09273,0 -0.153356,-0.02956 -0.207031,-0.09961 -0.05267,-0.06933 -0.08398,-0.171091 -0.08398,-0.3125 -10e-7,-0.07215 0.01038,-0.134999 0.0293,-0.1875 0.01993,-0.05393 0.04677,-0.09704 0.07813,-0.132813 0.03147,-0.03517 0.06668,-0.06197 0.107422,-0.08008 0.04197,-0.01845 0.08291,-0.02734 0.126953,-0.02734 z m 0.02734,0.144532 c 0.03507,0 0.06613,0.0018 0.09375,0.0078 0.01521,0.0033 0.03736,0.01258 0.05664,0.01953 v 0.445313 c -0.02704,0.01871 -0.05394,0.03759 -0.08398,0.05078 v -0.002 c -0.03782,0.01614 -0.07146,0.02344 -0.105468,0.02344 -0.06694,0 -0.0986,-0.0157 -0.123047,-0.05273 -0.02634,-0.04028 -0.04492,-0.110511 -0.04492,-0.212891 0,-0.101808 0.02306,-0.170421 0.05859,-0.214843 0.03583,-0.04479 0.07728,-0.06445 0.148437,-0.06445 z"
         id="path21249" />
    </g>
    <g
       aria-label="Data"
       transform="matrix(0,-0.99213524,1.0079271,0,0,0)"
       id="text21005"
       style="font-size:1.70618px;-inkscape-font-specification:'sans-serif, Normal';fill:none;stroke:#000000;stroke-width:0.143;stroke-miterlimit:4;stroke-dasharray:none">
      <path
         style="color:#000000;-inkscape-font-specification:'sans-serif, Normal';fill:#000000;stroke:none;stroke-width:0.143;stroke-miterlimit:4;stroke-dasharray:none"
         d="m -54.191406,33.046875 v 1.382812 h 0.384765 c 0.116333,0 0.211776,-0.0083 0.289063,-0.02539 0.07708,-0.01712 0.149067,-0.04456 0.212891,-0.08398 0.09266,-0.05736 0.166618,-0.138823 0.220703,-0.240234 C -53.028734,33.977654 -53,33.86343 -53,33.740234 c 0,-0.129859 -0.0264,-0.24788 -0.08008,-0.347656 -0.0528,-0.09815 -0.128208,-0.1773 -0.222656,-0.236328 -0.05699,-0.03522 -0.124617,-0.06347 -0.201172,-0.08203 h -0.002 c -0.0801,-0.01982 -0.1809,-0.02734 -0.304688,-0.02734 z m 0.142578,0.142578 h 0.02148 v 1.097656 h -0.02148 z m 0.476562,0.02148 c 0.0085,0.0017 0.02562,0.002 0.0332,0.0039 0.06594,0.01585 0.118755,0.03692 0.160156,0.0625 0.07439,0.04649 0.130258,0.106233 0.171875,0.183593 0.04074,0.07573 0.0625,0.168112 0.0625,0.279297 0,0.102297 -0.02084,0.190627 -0.06445,0.271485 -0.04366,0.08187 -0.09929,0.143777 -0.169922,0.1875 -0.04948,0.03056 -0.105091,0.05244 -0.167969,0.06641 -0.0069,0.0015 -0.02173,5.58e-4 -0.0293,0.002 0.06611,-0.01351 0.129737,-0.03653 0.185547,-0.07227 0.07202,-0.04607 0.127956,-0.1094 0.164063,-0.185546 0.03345,-0.0693 0.04384,-0.154613 0.04687,-0.246094 v -0.002 l 0.0059,-0.0098 v -0.01563 c 0,-0.105502 -0.01835,-0.19818 -0.05859,-0.277344 -0.04002,-0.07874 -0.101483,-0.142902 -0.179687,-0.1875 -0.05009,-0.02846 -0.104254,-0.04796 -0.160157,-0.06055 z m -0.3125,0.119141 h 0.08398 c 0.07319,0 0.134926,0.0058 0.183594,0.01563 0.04744,0.0091 0.09252,0.02678 0.134765,0.05078 0.0562,0.03205 0.09531,0.0724 0.123047,0.126953 0.02752,0.05413 0.04297,0.124004 0.04297,0.212891 0,0.08897 -0.01405,0.159115 -0.03906,0.210938 -0.02499,0.05271 -0.06201,0.09416 -0.113281,0.126953 -0.04183,0.02679 -0.08756,0.04465 -0.138672,0.05469 -0.05286,0.01047 -0.117436,0.01563 -0.193359,0.01563 h -0.08398 z"
         id="path21264" />
      <path
         style="color:#000000;-inkscape-font-specification:'sans-serif, Normal';fill:#000000;stroke:none;stroke-width:0.143;stroke-miterlimit:4;stroke-dasharray:none"
         d="m -52.498047,33.333984 c -0.06034,0 -0.122,0.005 -0.183594,0.01563 -0.05896,0.0102 -0.104086,0.01986 -0.138671,0.0293 l -0.05273,0.01367 v 0.285156 h 0.09375 l 0.01172,-0.0039 c 0.05073,-0.01935 0.100057,-0.03327 0.146484,-0.04297 0.04657,-0.01023 0.08644,-0.01563 0.121094,-0.01563 0.03074,0 0.06041,0.0019 0.08789,0.0059 0.02397,0.0034 0.04187,0.01021 0.05469,0.01758 0.01239,0.0071 0.01925,0.01367 0.02539,0.02539 v 0.002 c 0.0012,0.0022 8.55e-4,0.0088 0.002,0.01172 -0.06246,0.0041 -0.126678,0.0093 -0.183594,0.01563 -0.08491,0.0095 -0.159531,0.02598 -0.224609,0.05469 v 0.002 c -0.0659,0.02936 -0.121521,0.07145 -0.160156,0.126953 -0.04033,0.05825 -0.05664,0.130268 -0.05664,0.210938 0,0.10223 0.0377,0.197361 0.109375,0.265625 0.07071,0.06734 0.16207,0.101562 0.261719,0.101562 0.04949,0 0.0957,-0.0051 0.136718,-0.01563 0.03671,-0.009 0.07085,-0.02045 0.101563,-0.03516 0.0083,-0.0037 0.01717,-0.0093 0.02539,-0.01367 v 0.03906 h 0.298828 v -0.07227 -0.63086 c 0,-0.06726 -0.01138,-0.127083 -0.03516,-0.179687 -0.02304,-0.05098 -0.05682,-0.09429 -0.101562,-0.126953 -0.04397,-0.03229 -0.09579,-0.05592 -0.152344,-0.06836 h -0.002 c -0.05477,-0.01242 -0.116687,-0.01758 -0.185547,-0.01758 z m -0.158203,0.15625 c 0.0013,-2.28e-4 0.0026,2.24e-4 0.0039,0 -0.02542,0.0054 -0.0522,0.01583 -0.07813,0.02344 v -0.0078 c 0.02313,-0.005 0.04119,-0.0099 0.07422,-0.01563 z m 0.304688,0.002 c 0.0021,4.57e-4 0.0057,-4.77e-4 0.0078,0 h 0.002 c 0.0111,0.0024 0.01742,0.0085 0.02734,0.01172 -0.01181,-0.005 -0.02447,-0.0083 -0.03711,-0.01172 z m 0.06836,0.02539 c 0.01304,0.0063 0.03005,0.0095 0.04102,0.01758 0.02524,0.01843 0.04303,0.04019 0.05664,0.07031 0.01288,0.02849 0.02148,0.0684 0.02148,0.121093 v 0.560547 h -0.01367 v -0.123047 -0.03516 -0.0039 -0.3125 -0.01758 -0.07617 c 0,-0.04411 -0.0072,-0.08435 -0.02734,-0.121094 -0.01744,-0.03329 -0.04599,-0.06056 -0.07813,-0.08008 z m -0.369141,0.355469 c -0.02209,0.01131 -0.0462,0.0192 -0.06445,0.03516 0.01327,-0.009 0.02019,-0.02176 0.03711,-0.0293 0.0071,-0.0031 0.01965,-0.003 0.02734,-0.0059 z m -0.08008,0.04687 c -0.04082,0.04113 -0.06055,0.09851 -0.06055,0.158203 0,0.06772 0.02247,0.133713 0.07227,0.175781 h 0.002 c 0.04758,0.03938 0.109743,0.05101 0.179688,0.05273 -0.0153,0.0015 -0.0268,0.0059 -0.04492,0.0059 -0.06808,0 -0.118141,-0.01877 -0.164063,-0.0625 -0.04495,-0.04282 -0.06445,-0.09217 -0.06445,-0.162109 0,-0.0604 0.01355,-0.100518 0.0332,-0.128907 0.01069,-0.01514 0.0315,-0.02661 0.04687,-0.03906 z m 0.41211,0.02734 v 0.142578 c -0.02742,0.01893 -0.05485,0.03795 -0.08594,0.05273 -0.03558,0.01649 -0.07526,0.02344 -0.121094,0.02344 -0.05648,0 -0.08785,-0.01209 -0.101562,-0.02344 -0.01391,-0.01217 -0.02148,-0.02657 -0.02148,-0.06445 0,-0.03319 0.007,-0.04849 0.01953,-0.06055 0.01798,-0.01762 0.04225,-0.03083 0.07813,-0.04102 0.03072,-0.0086 0.07888,-0.01813 0.140625,-0.02344 0.03525,-0.003 0.06178,-0.0037 0.0918,-0.0059 z"
         id="path21266" />
      <path
         style="color:#000000;-inkscape-font-specification:'sans-serif, Normal';fill:#000000;stroke:none;stroke-width:0.143;stroke-miterlimit:4;stroke-dasharray:none"
         d="m -51.857422,33.089844 v 0.265625 h -0.107422 v 0.27539 h 0.107422 v 0.423828 c 0,0.123192 0.02605,0.224936 0.09375,0.294922 0.06534,0.06754 0.159783,0.09766 0.267578,0.09766 0.03159,0 0.06643,-0.0024 0.103516,-0.0078 0.03735,-0.0053 0.07098,-0.01094 0.103516,-0.01953 l 0.05273,-0.01563 v -0.05469 -0.210937 h -0.09375 l -0.01172,0.0039 c -0.0067,0.0027 -0.02618,0.01014 -0.05273,0.01758 -0.02179,0.0055 -0.04232,0.0078 -0.06055,0.0078 -0.03736,0 -0.06048,-0.0054 -0.06641,-0.0078 h -0.002 c -0.0074,-0.0039 -0.01174,-0.0089 -0.01758,-0.01953 -0.0082,-0.01468 -0.0121,-0.03037 -0.01367,-0.04687 v -0.002 c -0.0019,-0.02448 -0.0039,-0.06047 -0.0039,-0.107422 v -0.353516 h 0.322266 v -0.27539 h -0.322266 v -0.265625 z m 0.142578,0.142578 h 0.01367 V 33.488281 33.5 33.984375 c 0,0.04995 0.0014,0.08808 0.0039,0.119141 0.003,0.03712 0.01307,0.0749 0.03125,0.107421 0.01334,0.02384 0.03652,0.04035 0.05859,0.05664 -0.01506,-0.0081 -0.04367,-0.0062 -0.05469,-0.01758 -0.03116,-0.03221 -0.05273,-0.09302 -0.05273,-0.195313 V 33.5 33.488281 Z"
         id="path21268" />
      <path
         style="color:#000000;-inkscape-font-specification:'sans-serif, Normal';fill:#000000;stroke:none;stroke-width:0.143;stroke-miterlimit:4;stroke-dasharray:none"
         d="m -50.798828,33.333984 c -0.06034,0 -0.122,0.005 -0.183594,0.01563 -0.05897,0.0102 -0.104087,0.01986 -0.138672,0.0293 l -0.05273,0.01367 v 0.285156 h 0.09375 l 0.01172,-0.0039 c 0.05073,-0.01935 0.100056,-0.03327 0.146484,-0.04297 0.04657,-0.01023 0.08839,-0.01563 0.123047,-0.01563 0.03074,0 0.05845,0.0019 0.08594,0.0059 0.02397,0.0034 0.04187,0.01021 0.05469,0.01758 0.01239,0.0071 0.01925,0.01367 0.02539,0.02539 l 0.002,0.002 c 0.0012,0.0022 8.47e-4,0.0088 0.002,0.01172 -0.06297,0.0041 -0.126253,0.0092 -0.183594,0.01563 -0.08491,0.0095 -0.161484,0.02598 -0.226562,0.05469 v 0.002 c -0.0659,0.02936 -0.119568,0.07145 -0.158204,0.126953 h -0.002 c -0.04033,0.05825 -0.05664,0.130268 -0.05664,0.210938 0,0.102232 0.03769,0.197362 0.109375,0.265625 0.07071,0.06734 0.164023,0.101562 0.263672,0.101562 0.04948,0 0.09375,-0.0051 0.134765,-0.01563 0.03733,-0.0092 0.07238,-0.02008 0.103516,-0.03516 0.008,-0.0036 0.01555,-0.0095 0.02344,-0.01367 v 0.03906 h 0.298828 v -0.07227 -0.63086 c 0,-0.06726 -0.0094,-0.127083 -0.0332,-0.179687 -0.02305,-0.05097 -0.05878,-0.09429 -0.103515,-0.126953 -0.04397,-0.03229 -0.09579,-0.05592 -0.152344,-0.06836 h -0.002 c -0.05477,-0.01242 -0.116693,-0.01758 -0.185547,-0.01758 z m -0.158203,0.15625 c 0.0013,-2.28e-4 0.0026,2.24e-4 0.0039,0 -0.02542,0.0054 -0.0522,0.01583 -0.07813,0.02344 v -0.0078 c 0.02313,-0.005 0.04119,-0.0099 0.07422,-0.01563 z m 0.304687,0.002 c 0.0021,4.57e-4 0.0057,-4.77e-4 0.0078,0 h 0.002 c 0.0111,0.0024 0.01742,0.0085 0.02734,0.01172 -0.01181,-0.005 -0.02447,-0.0083 -0.03711,-0.01172 z m 0.07031,0.02734 c 0.01217,0.006 0.02873,0.008 0.03906,0.01563 0.02524,0.01843 0.04302,0.04019 0.05664,0.07031 0.01288,0.02849 0.02148,0.0684 0.02148,0.121093 v 0.560547 h -0.01367 v -0.123047 -0.03516 -0.0039 -0.3125 -0.01758 -0.07617 c 0,-0.04411 -0.0072,-0.08435 -0.02734,-0.121094 -0.01721,-0.03285 -0.04461,-0.05864 -0.07617,-0.07813 z m -0.371094,0.353516 c -0.02157,0.01105 -0.04457,0.01968 -0.0625,0.03516 0.01307,-0.0088 0.01858,-0.02191 0.03516,-0.0293 0.0071,-0.0031 0.01965,-0.003 0.02734,-0.0059 z m -0.08008,0.04883 c -0.03992,0.04105 -0.06055,0.0972 -0.06055,0.15625 0,0.06772 0.02247,0.133713 0.07227,0.175781 h 0.002 c 0.04761,0.0394 0.111642,0.05103 0.18164,0.05273 -0.01554,0.0016 -0.02645,0.0059 -0.04492,0.0059 -0.06808,0 -0.118141,-0.01877 -0.164063,-0.0625 -0.04496,-0.04282 -0.06641,-0.09217 -0.06641,-0.162109 0,-0.0604 0.01355,-0.100518 0.0332,-0.128907 0.01051,-0.01509 0.0318,-0.02468 0.04687,-0.03711 z m 0.412109,0.02539 v 0.142578 c -0.02742,0.01893 -0.05485,0.03795 -0.08594,0.05273 -0.03558,0.01649 -0.0733,0.02344 -0.119141,0.02344 -0.05546,0 -0.08746,-0.01227 -0.101562,-0.02344 h -0.002 c -0.01368,-0.01212 -0.02148,-0.02691 -0.02148,-0.06445 0,-0.03319 0.007,-0.04849 0.01953,-0.06055 0.01798,-0.01762 0.04225,-0.03083 0.07813,-0.04102 0.03072,-0.0086 0.07888,-0.01813 0.140625,-0.02344 0.03525,-0.003 0.06178,-0.0037 0.0918,-0.0059 z"
         id="path21270" />
    </g>
    <g
       aria-label="Vcc"
       transform="matrix(0,-0.99213524,1.0079271,0,-7.4699672,-0.08667543)"
       id="text21009"
       style="font-size:1.70618px;-inkscape-font-specification:'sans-serif, Normal';fill:none;stroke:#000000;stroke-width:0.143;stroke-miterlimit:4;stroke-dasharray:none">
      <path
         style="color:#000000;-inkscape-font-specification:'sans-serif, Normal';fill:#000000;stroke:none;stroke-width:0.143;stroke-miterlimit:4;stroke-dasharray:none"
         d="m -54.367187,38.039062 0.503906,1.384766 h 0.320312 l 0.501953,-1.384766 h -0.101562 -0.21875 l -0.337891,0.949219 -0.339843,-0.949219 z m 0.205078,0.144532 h 0.02344 l 0.390625,1.095703 h -0.01563 z m 0.902343,0 h 0.01563 l -0.40039,1.095703 h -0.0059 z"
         id="path21289" />
      <path
         style="color:#000000;-inkscape-font-specification:'sans-serif, Normal';fill:#000000;stroke:none;stroke-width:0.143;stroke-miterlimit:4;stroke-dasharray:none"
         d="m -52.576172,38.328125 c -0.152236,0 -0.285398,0.0517 -0.382812,0.152344 -0.09781,0.101717 -0.146485,0.241024 -0.146485,0.40625 0,0.08813 0.01335,0.169528 0.03906,0.240234 0.02528,0.06952 0.06247,0.129548 0.111328,0.177734 0.04737,0.04702 0.105227,0.08241 0.169922,0.105469 0.06444,0.02233 0.134887,0.0332 0.208984,0.0332 0.05837,0 0.11479,-0.0078 0.167969,-0.02344 0.0515,-0.01515 0.10503,-0.03611 0.160156,-0.0625 l 0.04102,-0.01953 v -0.04492 -0.244141 h -0.10547 l -0.01953,0.01563 c -0.0089,0.0072 -0.02217,0.01869 -0.04102,0.03125 -0.01793,0.01146 -0.0377,0.0225 -0.05859,0.0332 -0.02069,0.01056 -0.04393,0.01818 -0.07227,0.02539 -0.02744,0.007 -0.05469,0.01172 -0.08008,0.01172 -0.07539,0 -0.119349,-0.02066 -0.15625,-0.06445 -0.03618,-0.04382 -0.05859,-0.113272 -0.05859,-0.214843 0,-0.104983 0.02243,-0.172785 0.05859,-0.214844 0.03842,-0.04462 0.08347,-0.06445 0.15625,-0.06445 0.03846,0 0.07975,0.0063 0.123047,0.02344 0.04412,0.01726 0.08794,0.04274 0.130859,0.07617 l 0.01953,0.01563 h 0.103516 v -0.289062 l -0.03906,-0.01953 c -0.04718,-0.0239 -0.09886,-0.04446 -0.154297,-0.06055 -0.05754,-0.01689 -0.115759,-0.02539 -0.175781,-0.02539 z m 0.109375,0.158203 c 0.009,0.0021 0.01841,0.0013 0.02734,0.0039 0.003,8.73e-4 0.0048,0.003 0.0078,0.0039 -0.01165,-0.004 -0.02347,-0.0047 -0.03516,-0.0078 z m 0.08398,0.02539 c 0.01132,0.0042 0.02253,0.0091 0.0332,0.01367 v 0.0059 c -0.0113,-0.0059 -0.02169,-0.01439 -0.0332,-0.01953 z m -0.425782,0.04883 c -0.01093,0.0096 -0.0294,0.0064 -0.03906,0.01758 -0.06602,0.07679 -0.09375,0.18253 -0.09375,0.308594 0,0.122809 0.02605,0.227428 0.08984,0.304687 l 0.002,0.002 c 0.05622,0.06672 0.141476,0.09307 0.232422,0.101563 -0.04256,-0.0032 -0.0854,-0.0072 -0.121094,-0.01953 -0.04695,-0.01674 -0.08481,-0.03988 -0.117188,-0.07227 -0.03223,-0.03179 -0.05897,-0.07233 -0.07813,-0.125 -0.01872,-0.05148 -0.02734,-0.116247 -0.02734,-0.191406 0,-0.13834 0.03546,-0.235183 0.103515,-0.306641 0.01225,-0.01266 0.03543,-0.0091 0.04883,-0.01953 z"
         id="path21291" />
      <path
         style="color:#000000;-inkscape-font-specification:'sans-serif, Normal';fill:#000000;stroke:none;stroke-width:0.143;stroke-miterlimit:4;stroke-dasharray:none"
         d="m -51.6875,38.328125 c -0.152236,0 -0.285398,0.0517 -0.382812,0.152344 -0.09781,0.101717 -0.144532,0.241024 -0.144532,0.40625 0,0.08813 0.0114,0.169528 0.03711,0.240234 0.02528,0.06952 0.06247,0.129548 0.111328,0.177734 0.0476,0.0476 0.104688,0.08222 0.169922,0.105469 h 0.002 c 0.06444,0.02233 0.132933,0.0332 0.207031,0.0332 0.05904,0 0.116205,-0.0074 0.169922,-0.02344 0.0515,-0.01515 0.10503,-0.03611 0.160156,-0.0625 l 0.04102,-0.01953 v -0.04492 -0.244141 h -0.105469 l -0.01953,0.01563 c -0.0089,0.0072 -0.02412,0.01869 -0.04297,0.03125 -0.01755,0.01115 -0.03627,0.02277 -0.05664,0.0332 -0.02069,0.01056 -0.04588,0.01818 -0.07422,0.02539 -0.02744,0.007 -0.05274,0.01172 -0.07813,0.01172 -0.07539,0 -0.121302,-0.02066 -0.158203,-0.06445 -0.03618,-0.04382 -0.05859,-0.113272 -0.05859,-0.214843 0,-0.104983 0.02439,-0.172785 0.06055,-0.214844 0.03842,-0.04462 0.08347,-0.06445 0.15625,-0.06445 0.03846,0 0.0778,0.0063 0.121093,0.02344 h 0.002 c 0.04412,0.01726 0.08599,0.04274 0.128906,0.07617 l 0.01953,0.01563 h 0.105469 v -0.289062 l -0.03906,-0.01953 c -0.04718,-0.0239 -0.09886,-0.04446 -0.154297,-0.06055 -0.05754,-0.01689 -0.117712,-0.02539 -0.177734,-0.02539 z m 0.111328,0.158203 c 0.0084,0.002 0.01709,0.0015 0.02539,0.0039 0.003,8.73e-4 0.0048,0.003 0.0078,0.0039 -0.01115,-0.0038 -0.02202,-0.0048 -0.0332,-0.0078 z m 0.08203,0.02539 c 0.01132,0.0042 0.02253,0.0091 0.0332,0.01367 v 0.0059 c -0.0113,-0.0059 -0.02169,-0.01439 -0.0332,-0.01953 z m -0.464843,0.06641 c -0.06602,0.07679 -0.09375,0.18253 -0.09375,0.308594 0,0.122809 0.028,0.227428 0.0918,0.304687 v 0.002 c 0.05666,0.06725 0.144504,0.09348 0.236328,0.101563 -0.04395,-0.0031 -0.08636,-0.0068 -0.123047,-0.01953 -0.04695,-0.01674 -0.0848,-0.03988 -0.117188,-0.07227 -0.03223,-0.03179 -0.05897,-0.07233 -0.07813,-0.125 -0.01872,-0.05148 -0.0293,-0.116247 -0.0293,-0.191406 0,-0.138343 0.03741,-0.235182 0.105469,-0.306641 0.0019,-0.0019 0.0059,-7.1e-5 0.0078,-0.002 z"
         id="path21293" />
    </g>
    <g
       aria-label="RX470C"
       transform="scale(1.2604782,0.79334969)"
       id="text23122"
       style="font-size:2.68986px;fill:none;stroke:#000000;stroke-width:0.3">
      <path
         style="color:#000000;fill:#000000;stroke:none;-inkscape-stroke:none"
         d="m 10.027344,68.898437 v 2.25586 h 0.560547 v -0.777344 h 0.146484 l 0.654297,0.777344 h 0.734375 L 11.908203,70.90625 11.275391,70.169922 c 0.06768,-0.04674 0.148526,-0.07955 0.197265,-0.144531 0.09201,-0.12382 0.136719,-0.279185 0.136719,-0.445313 0,-0.123525 -0.0243,-0.237356 -0.08203,-0.333984 -0.05173,-0.08873 -0.126138,-0.162901 -0.214844,-0.21875 -0.07966,-0.04979 -0.168319,-0.08355 -0.263672,-0.101563 -0.09295,-0.01859 -0.199346,-0.02734 -0.324219,-0.02734 z m 0.560547,0.523438 h 0.15625 c 0.06255,0 0.113659,0.0058 0.152343,0.01367 h 0.002 c 0.03477,0.0065 0.05954,0.01677 0.07813,0.0293 l 0.002,0.002 c 0.02545,0.01664 0.03425,0.02955 0.04101,0.04492 v 0.002 h 0.002 c 0.0095,0.02016 0.01563,0.04787 0.01563,0.08594 0,0.06046 -0.0081,0.103233 -0.01758,0.126953 h -0.002 c -0.01004,0.0258 -0.02436,0.04943 -0.04883,0.07227 -0.0232,0.0208 -0.05125,0.03555 -0.08984,0.04492 -0.04687,0.01056 -0.106681,0.01563 -0.179687,0.01563 h -0.111328 z"
         id="path26828" />
      <path
         style="color:#000000;fill:#000000;stroke:none;-inkscape-stroke:none"
         d="m 11.605469,68.898437 0.767578,1.126954 -0.787109,1.128906 h 0.65039 l 0.466797,-0.685547 0.453125,0.685547 h 0.666016 l -0.775391,-1.138672 0.78125,-1.117188 h -0.289062 -0.363282 l -0.457031,0.675782 -0.449219,-0.675782 z"
         id="path26830" />
      <path
         style="color:#000000;fill:#000000;stroke:none;-inkscape-stroke:none"
         d="m 14.607422,68.898437 -1.027344,1.197266 v 0.507813 h 0.935547 v 0.550781 h 0.552734 v -0.550781 h 0.291016 V 70.455078 70.09375 h -0.291016 v -1.195313 z m -0.0918,0.867188 v 0.328125 h -0.28125 z"
         id="path26832" />
      <path
         style="color:#000000;fill:#000000;stroke:none;-inkscape-stroke:none"
         d="m 15.394531,68.898437 v 0.529297 h 1.009766 l -0.941406,1.726563 h 0.623046 l 0.945313,-1.775391 v -0.03711 -0.44336 z"
         id="path26834" />
      <path
         style="color:#000000;fill:#000000;stroke:none;-inkscape-stroke:none"
         d="m 17.910156,68.859375 c -0.267884,0 -0.500518,0.109381 -0.636719,0.316406 -0.136108,0.205796 -0.189453,0.490158 -0.189453,0.853516 0,0.360597 0.05214,0.641586 0.185547,0.847656 0.135607,0.207784 0.370516,0.318359 0.640625,0.318359 0.266577,0 0.500155,-0.108201 0.636719,-0.3125 0.137786,-0.205585 0.189453,-0.490594 0.189453,-0.857421 0,-0.356549 -0.05192,-0.636851 -0.185547,-0.84375 -0.134236,-0.21063 -0.369955,-0.322266 -0.640625,-0.322266 z m 0,0.517578 c 0.06266,0 0.100847,0.01096 0.123047,0.02539 v 0.002 c 0.02663,0.01703 0.0493,0.04167 0.07031,0.08789 0.02273,0.04925 0.04157,0.117188 0.05078,0.203125 v 0.002 c 0.01049,0.09034 0.01563,0.19931 0.01563,0.328125 0,0.13062 -0.0052,0.241866 -0.01563,0.330078 -0.0092,0.08369 -0.02738,0.152867 -0.05078,0.207031 -0.02023,0.047 -0.04226,0.07148 -0.06836,0.08789 -0.02537,0.01596 -0.06344,0.02734 -0.125,0.02734 -0.06706,0 -0.105034,-0.01261 -0.126953,-0.02734 -0.02653,-0.01813 -0.0485,-0.04291 -0.06836,-0.08984 v -0.002 c -0.02455,-0.05661 -0.04249,-0.123976 -0.05078,-0.203125 -0.0088,-0.08428 -0.01367,-0.193104 -0.01367,-0.326172 0,-0.120111 0.0057,-0.229854 0.01563,-0.328125 0.01021,-0.0935 0.02876,-0.16337 0.04883,-0.207031 0.02213,-0.04856 0.0463,-0.07324 0.07227,-0.08984 0.02537,-0.01561 0.0624,-0.02734 0.123047,-0.02734 z"
         id="path26836" />
      <path
         style="color:#000000;fill:#000000;stroke:none;-inkscape-stroke:none"
         d="m 19.876953,68.863281 c -0.159147,0 -0.308322,0.02442 -0.445312,0.07617 h -0.002 c -0.135864,0.05171 -0.254859,0.129736 -0.353515,0.230469 -0.101891,0.103973 -0.178527,0.230168 -0.230469,0.375 -0.05234,0.14594 -0.07813,0.309133 -0.07813,0.484375 0,0.183784 0.02543,0.349286 0.08008,0.498047 v 0.002 c 0.05364,0.145034 0.131051,0.270778 0.232422,0.371094 0.101315,0.100277 0.223751,0.17539 0.359375,0.222656 0.133969,0.04533 0.279811,0.06641 0.435547,0.06641 0.08344,0 0.162882,-0.007 0.236328,-0.02148 0.06669,-0.0122 0.130609,-0.0266 0.189453,-0.04492 h 0.002 c 0.06721,-0.02147 0.121906,-0.04349 0.169922,-0.06641 v 0.002 c 0.03802,-0.01774 0.07975,-0.038 0.126953,-0.05859 l 0.08984,-0.03906 v -0.09766 -0.455078 h -0.224609 l -0.04297,0.03906 c -0.08348,0.07506 -0.170109,0.128149 -0.261719,0.164062 -0.09136,0.03581 -0.19075,0.05469 -0.298828,0.05469 -0.07356,0 -0.140271,-0.01322 -0.205078,-0.03711 h -0.002 c -0.0598,-0.02339 -0.110113,-0.05898 -0.15625,-0.107422 -0.0424,-0.04493 -0.08308,-0.106904 -0.115235,-0.191406 h 0.002 c -0.02887,-0.07768 -0.04687,-0.176686 -0.04687,-0.300781 0,-0.117919 0.01626,-0.218017 0.04297,-0.298828 v -0.002 c 0.0286,-0.08365 0.06562,-0.147752 0.109375,-0.195313 0.04865,-0.05277 0.09906,-0.0865 0.15625,-0.109375 h 0.002 c 0.05961,-0.02424 0.128367,-0.03906 0.210938,-0.03906 0.103804,0 0.197149,0.01855 0.285156,0.05273 0.08747,0.03397 0.18155,0.09002 0.279297,0.171875 l 0.04102,0.03516 h 0.224609 v -0.552734 l -0.08203,-0.04102 c -0.135435,-0.06772 -0.261355,-0.11565 -0.38086,-0.144531 -0.115465,-0.02814 -0.232453,-0.04297 -0.349609,-0.04297 z"
         id="path26838" />
    </g>
  </g>
</svg>
